<svg width="133" height="217" viewBox="0 0 133 217" fill="none" xmlns="http://www.w3.org/2000/svg">
<path d="M116.733 31.6245L112.233 77.1245L112.034 79.145L110.482 80.4536L97.7712 91.1782L111.515 113.512L113.3 116.41L78.2576 163.132H53.824L52.323 161.217L17.823 117.217L15.281 113.975L17.9763 110.861L36.0828 89.936L22.2058 83.6919L19.4343 82.4448L19.2654 79.4096L16.7654 34.4096L16.2957 25.9585L23.9236 29.6264L47.0173 40.729L63.0466 27.2993L66.2576 24.6089L69.4685 27.2993L85.2937 40.5581L109.268 26.7964L117.689 21.9624L116.733 31.6245Z" fill="white" stroke="white" style="fill:white;fill-opacity:1;stroke:white;stroke-opacity:1;" stroke-width="10"/>
<mask id="path-2-outside-1_28_56" maskUnits="userSpaceOnUse" x="-0.242432" y="-0.367706" width="133" height="217" fill="black">
<rect fill="white" x="-0.242432" y="-0.367706" width="133" height="217"/>
<path d="M46.5935 38.8872L65.5603 20.5346L84.5251 38.8872L117.377 18.7817L113.69 81.0298L103.14 84.3725L100.88 89.3608C110.017 95.9573 117.207 105.083 121.422 115.713C115.883 129.682 105.208 141.052 91.7273 147.499C95.7112 146.711 99.6225 145.13 103.257 142.809L116.871 178.338C119.489 185.171 115.911 193.565 109.165 196.417C104.476 198.4 99.5842 197.114 96.6394 193.514C95.7137 200.91 89.4035 206.632 81.7566 206.632H49.7566C42.11 206.632 35.7989 200.911 34.8728 193.515C31.928 197.114 27.0373 198.4 22.3494 196.417C15.6031 193.565 12.0254 185.171 14.6433 178.338L28.2566 142.809C32.2131 145.336 36.4987 146.985 40.8484 147.69C27.1805 141.277 16.3504 129.819 10.7576 115.713C14.8958 105.277 21.9021 96.2906 30.8025 89.7241L29.822 84.3725L17.7537 81.3266L13.4968 18.6323L46.5935 38.8872ZM66.0896 96.9243C51.6987 96.9244 39.0213 104.396 31.7751 115.713C39.0212 127.031 51.6986 134.504 66.0896 134.504C80.4804 134.504 93.1569 127.031 100.403 115.713C93.1569 104.397 80.4804 96.9243 66.0896 96.9243ZM66.1521 106.319C71.3405 106.319 75.5464 110.525 75.5466 115.713C75.5466 120.902 71.3406 125.109 66.1521 125.109C60.9634 125.109 56.7566 120.902 56.7566 115.713C56.7568 110.525 60.9635 106.319 66.1521 106.319ZM48.5691 56.7592L29.5466 45.1196L31.241 70.0688L43.6394 73.2007L31.241 77.8979H99.6326L101.575 45.1196L82.5525 56.7592L65.5603 40.3188L48.5691 56.7592Z"/>
</mask>
<path d="M46.5935 38.8872L65.5603 20.5346L84.5251 38.8872L117.377 18.7817L113.69 81.0298L103.14 84.3725L100.88 89.3608C110.017 95.9573 117.207 105.083 121.422 115.713C115.883 129.682 105.208 141.052 91.7273 147.499C95.7112 146.711 99.6225 145.13 103.257 142.809L116.871 178.338C119.489 185.171 115.911 193.565 109.165 196.417C104.476 198.4 99.5842 197.114 96.6394 193.514C95.7137 200.91 89.4035 206.632 81.7566 206.632H49.7566C42.11 206.632 35.7989 200.911 34.8728 193.515C31.928 197.114 27.0373 198.4 22.3494 196.417C15.6031 193.565 12.0254 185.171 14.6433 178.338L28.2566 142.809C32.2131 145.336 36.4987 146.985 40.8484 147.69C27.1805 141.277 16.3504 129.819 10.7576 115.713C14.8958 105.277 21.9021 96.2906 30.8025 89.7241L29.822 84.3725L17.7537 81.3266L13.4968 18.6323L46.5935 38.8872ZM66.0896 96.9243C51.6987 96.9244 39.0213 104.396 31.7751 115.713C39.0212 127.031 51.6986 134.504 66.0896 134.504C80.4804 134.504 93.1569 127.031 100.403 115.713C93.1569 104.397 80.4804 96.9243 66.0896 96.9243ZM66.1521 106.319C71.3405 106.319 75.5464 110.525 75.5466 115.713C75.5466 120.902 71.3406 125.109 66.1521 125.109C60.9634 125.109 56.7566 120.902 56.7566 115.713C56.7568 110.525 60.9635 106.319 66.1521 106.319ZM48.5691 56.7592L29.5466 45.1196L31.241 70.0688L43.6394 73.2007L31.241 77.8979H99.6326L101.575 45.1196L82.5525 56.7592L65.5603 40.3188L48.5691 56.7592Z" fill="#212121" style="fill:#212121;fill:color(display-p3 0.1294 0.1294 0.1294);fill-opacity:1;"/>
<path d="M46.5935 38.8872L41.3735 47.4167L47.9805 51.4601L53.5472 46.0737L46.5935 38.8872ZM65.5603 20.5346L72.5144 13.3485L65.5607 6.61927L58.6066 13.3482L65.5603 20.5346ZM84.5251 38.8872L77.571 46.0733L83.1378 51.4604L89.7452 47.4166L84.5251 38.8872ZM117.377 18.7817L127.359 19.3729L128.491 0.255251L112.157 10.2523L117.377 18.7817ZM113.69 81.0298L116.711 90.5627L123.266 88.4855L123.673 81.6209L113.69 81.0298ZM103.14 84.3725L100.12 74.8396L95.8717 76.1857L94.0321 80.2446L103.14 84.3725ZM100.88 89.3608L91.7714 85.2329L88.3956 92.6816L95.0261 97.4686L100.88 89.3608ZM121.422 115.713L130.718 119.399L132.179 115.713L130.717 112.027L121.422 115.713ZM91.7273 147.499L87.4128 138.478L93.6691 157.309L91.7273 147.499ZM103.257 142.809L112.595 139.231L108.207 127.781L97.8736 134.382L103.257 142.809ZM116.871 178.338L126.209 174.76L126.209 174.76L116.871 178.338ZM109.165 196.417L113.06 205.628L113.06 205.628L109.165 196.417ZM96.6394 193.514L104.38 187.183L89.6134 169.13L86.7168 192.272L96.6394 193.514ZM49.7566 206.632L49.7566 216.632H49.7566V206.632ZM34.8728 193.515L44.7953 192.273L41.8982 169.138L27.1334 187.183L34.8728 193.515ZM22.3494 196.417L18.4545 205.628L18.4546 205.628L22.3494 196.417ZM14.6433 178.338L23.9813 181.916L23.9813 181.916L14.6433 178.338ZM28.2566 142.809L33.6396 134.382L23.3058 127.781L18.9186 139.231L28.2566 142.809ZM40.8484 147.69L39.2485 157.561L45.0958 138.637L40.8484 147.69ZM10.7576 115.713L1.46172 112.027L0.000113487 115.713L1.46165 119.399L10.7576 115.713ZM30.8025 89.7241L36.7393 97.7711L41.7641 94.064L40.6388 87.922L30.8025 89.7241ZM29.822 84.3725L39.6583 82.5704L38.5002 76.2492L32.2692 74.6766L29.822 84.3725ZM17.7537 81.3266L7.77663 82.0041L8.26837 89.2462L15.3065 91.0226L17.7537 81.3266ZM13.4968 18.6323L18.7168 10.1028L2.2087 9.53674e-06L3.5198 19.3097L13.4968 18.6323ZM66.0896 96.9243V86.9243H66.0896L66.0896 96.9243ZM31.7751 115.713L23.3536 110.321L19.9011 115.713L23.3533 121.105L31.7751 115.713ZM66.0896 134.504L66.0895 144.504H66.0896V134.504ZM100.403 115.713L108.825 121.105L112.277 115.713L108.825 110.321L100.403 115.713ZM66.1521 106.319L66.1525 96.3188H66.1521V106.319ZM75.5466 115.713H85.5466V115.713L75.5466 115.713ZM66.1521 125.109V135.109H66.1525L66.1521 125.109ZM56.7566 115.713L46.7566 115.713V115.713H56.7566ZM48.5691 56.7592L43.3498 65.2891L49.9564 69.3317L55.5227 63.9458L48.5691 56.7592ZM29.5466 45.1196L34.766 36.5897L18.2584 26.4889L19.5696 45.7972L29.5466 45.1196ZM31.241 70.0688L21.2639 70.7464L21.7557 77.9869L28.7919 79.7643L31.241 70.0688ZM43.6394 73.2007L47.1823 82.552L76.908 71.2902L46.0885 63.5052L43.6394 73.2007ZM31.241 77.8979L27.6981 68.5465L31.241 87.8979V77.8979ZM99.6326 77.8979V87.8979H109.058L109.615 78.4895L99.6326 77.8979ZM101.575 45.1196L111.557 45.7111L112.69 26.5947L96.3556 36.5897L101.575 45.1196ZM82.5525 56.7592L75.5991 63.946L81.1653 69.3316L87.7718 65.2891L82.5525 56.7592ZM65.5603 40.3188L72.5137 33.132L65.5601 26.4042L58.6067 33.1322L65.5603 40.3188ZM46.5935 38.8872L53.5472 46.0737L72.514 27.7211L65.5603 20.5346L58.6066 13.3482L39.6398 31.7007L46.5935 38.8872ZM65.5603 20.5346L58.6062 27.7208L77.571 46.0733L84.5251 38.8872L91.4793 31.7011L72.5144 13.3485L65.5603 20.5346ZM84.5251 38.8872L89.7452 47.4166L122.597 27.3111L117.377 18.7817L112.157 10.2523L79.3051 30.3578L84.5251 38.8872ZM117.377 18.7817L107.394 18.1905L103.708 80.4386L113.69 81.0298L123.673 81.6209L127.359 19.3729L117.377 18.7817ZM113.69 81.0298L110.67 71.4969L100.12 74.8396L103.14 84.3725L106.161 93.9054L116.711 90.5627L113.69 81.0298ZM103.14 84.3725L94.0321 80.2446L91.7714 85.2329L100.88 89.3608L109.988 93.4888L112.249 88.5005L103.14 84.3725ZM100.88 89.3608L95.0261 97.4686C102.64 102.965 108.623 110.567 112.126 119.399L121.422 115.713L130.717 112.027C125.79 99.6004 117.393 88.9493 106.733 81.253L100.88 89.3608ZM121.422 115.713L112.126 112.027C107.521 123.641 98.632 133.112 87.4128 138.478L91.7273 147.499L96.0418 156.521C111.783 148.992 124.245 135.723 130.718 119.399L121.422 115.713ZM91.7273 147.499L93.6691 157.309C98.9272 156.268 103.999 154.2 108.64 151.237L103.257 142.809L97.8736 134.382C95.2457 136.06 92.4952 137.153 89.7855 137.69L91.7273 147.499ZM103.257 142.809L93.9187 146.387L107.533 181.916L116.871 178.338L126.209 174.76L112.595 139.231L103.257 142.809ZM116.871 178.338L107.533 181.916C108.219 183.707 107.061 186.45 105.27 187.207L109.165 196.417L113.06 205.628C124.761 200.679 130.759 186.635 126.209 174.76L116.871 178.338ZM109.165 196.417L105.27 187.207C105.034 187.307 104.867 187.336 104.771 187.345C104.673 187.353 104.615 187.343 104.587 187.337C104.552 187.328 104.483 187.309 104.38 187.183L96.6394 193.514L88.899 199.845C94.7222 206.965 104.384 209.297 113.06 205.628L109.165 196.417ZM96.6394 193.514L86.7168 192.272C86.4095 194.728 84.2977 196.632 81.7566 196.632V206.632V216.632C94.5093 216.632 105.018 207.093 106.562 194.756L96.6394 193.514ZM81.7566 206.632V196.632H49.7566V206.632V216.632H81.7566V206.632ZM49.7566 206.632L49.7566 196.632C47.2145 196.632 45.1026 194.727 44.7953 192.273L34.8728 193.515L24.9503 194.758C26.4952 207.095 37.0054 216.632 49.7566 216.632L49.7566 206.632ZM34.8728 193.515L27.1334 187.183C27.0298 187.309 26.9608 187.328 26.9265 187.337C26.8983 187.343 26.8402 187.353 26.743 187.345C26.6467 187.336 26.4798 187.307 26.2441 187.207L22.3494 196.417L18.4546 205.628C27.1298 209.296 36.7893 206.964 42.6122 199.848L34.8728 193.515ZM22.3494 196.417L26.2442 187.207C24.4536 186.45 23.2953 183.707 23.9813 181.916L14.6433 178.338L5.30531 174.76C0.755591 186.635 6.75272 200.679 18.4545 205.628L22.3494 196.417ZM14.6433 178.338L23.9813 181.916L37.5946 146.387L28.2566 142.809L18.9186 139.231L5.3053 174.76L14.6433 178.338ZM28.2566 142.809L22.8736 151.237C27.9262 154.464 33.4914 156.628 39.2485 157.561L40.8484 147.69L42.4483 137.819C39.506 137.342 36.5001 136.209 33.6396 134.382L28.2566 142.809ZM40.8484 147.69L45.0958 138.637C33.7223 133.301 24.7038 123.756 20.0535 112.027L10.7576 115.713L1.46165 119.399C7.99704 135.882 20.6387 149.254 36.601 156.743L40.8484 147.69ZM10.7576 115.713L20.0534 119.399C23.4919 110.728 29.3223 103.243 36.7393 97.7711L30.8025 89.7241L24.8657 81.6771C14.4819 89.338 6.29977 99.8263 1.46172 112.027L10.7576 115.713ZM30.8025 89.7241L40.6388 87.922L39.6583 82.5704L29.822 84.3725L19.9857 86.1747L20.9662 91.5262L30.8025 89.7241ZM29.822 84.3725L32.2692 74.6766L20.2008 71.6307L17.7537 81.3266L15.3065 91.0226L27.3749 94.0685L29.822 84.3725ZM17.7537 81.3266L27.7307 80.6492L23.4739 17.9549L13.4968 18.6323L3.5198 19.3097L7.77663 82.0041L17.7537 81.3266ZM13.4968 18.6323L8.27686 27.1618L41.3735 47.4167L46.5935 38.8872L51.8135 30.3577L18.7168 10.1028L13.4968 18.6323ZM66.0896 96.9243L66.0896 86.9243C48.1544 86.9244 32.3639 96.249 23.3536 110.321L31.7751 115.713L40.1967 121.106C45.6787 112.544 55.243 106.924 66.0896 106.924L66.0896 96.9243ZM31.7751 115.713L23.3533 121.105C32.3633 135.178 48.1537 144.504 66.0895 144.504L66.0896 134.504L66.0897 124.504C55.2435 124.504 45.6791 118.884 40.197 110.321L31.7751 115.713ZM66.0896 134.504V144.504C84.0257 144.504 99.815 135.178 108.825 121.105L100.403 115.713L91.9814 110.321C86.4988 118.884 76.9351 124.504 66.0896 124.504V134.504ZM100.403 115.713L108.825 110.321C99.8144 96.2495 84.0251 86.9243 66.0896 86.9243V96.9243V106.924C76.9357 106.924 86.4993 112.544 91.9816 121.106L100.403 115.713ZM66.1521 106.319L66.1517 116.319C65.8176 116.319 65.5466 116.048 65.5466 115.714L75.5466 115.713L85.5466 115.713C85.5463 105.002 76.8634 96.3192 66.1525 96.3188L66.1521 106.319ZM75.5466 115.713H65.5466C65.5466 115.38 65.8167 115.109 66.1517 115.109L66.1521 125.109L66.1525 135.109C76.8645 135.108 85.5466 126.424 85.5466 115.713H75.5466ZM66.1521 125.109V115.109C66.4862 115.109 66.7566 115.379 66.7566 115.713H56.7566H46.7566C46.7566 126.425 55.4406 135.109 66.1521 135.109V125.109ZM56.7566 115.713L66.7566 115.714C66.7566 116.049 66.4853 116.319 66.1521 116.319V106.319V96.3188C55.4417 96.3188 46.757 105.001 46.7566 115.713L56.7566 115.713ZM48.5691 56.7592L53.7884 48.2294L34.766 36.5897L29.5466 45.1196L24.3273 53.6495L43.3498 65.2891L48.5691 56.7592ZM29.5466 45.1196L19.5696 45.7972L21.2639 70.7464L31.241 70.0688L41.218 69.3913L39.5237 44.442L29.5466 45.1196ZM31.241 70.0688L28.7919 79.7643L41.1903 82.8961L43.6394 73.2007L46.0885 63.5052L33.69 60.3734L31.241 70.0688ZM43.6394 73.2007L40.0965 63.8493L27.6981 68.5465L31.241 77.8979L34.7838 87.2493L47.1823 82.552L43.6394 73.2007ZM31.241 77.8979V87.8979H99.6326V77.8979V67.8979H31.241V77.8979ZM99.6326 77.8979L109.615 78.4895L111.557 45.7111L101.575 45.1196L91.5925 44.5281L89.6501 77.3064L99.6326 77.8979ZM101.575 45.1196L96.3556 36.5897L77.3332 48.2294L82.5525 56.7592L87.7718 65.2891L106.794 53.6495L101.575 45.1196ZM82.5525 56.7592L89.5059 49.5725L72.5137 33.132L65.5603 40.3188L58.6069 47.5056L75.5991 63.946L82.5525 56.7592ZM65.5603 40.3188L58.6067 33.1322L41.6155 49.5727L48.5691 56.7592L55.5227 63.9458L72.5139 47.5054L65.5603 40.3188Z" fill="white" style="fill:white;fill-opacity:1;" mask="url(#path-2-outside-1_28_56)"/>
<path d="M42.8976 169.861V173.721C43.848 173.643 44.3523 173.643 45.0118 173.643C47.8242 173.643 49.7445 175.68 49.8803 178.725C49.8803 182.585 46.9126 183.923 44.9924 183.923C43.2079 183.923 42.4127 183.787 38.5334 183.438V169.861H42.8976ZM44.0808 176.96C43.848 176.96 43.5959 176.979 42.8976 177.038V180.316C43.4795 180.374 43.8092 180.413 44.0614 180.413C44.9536 180.413 45.7294 179.753 45.7294 178.744C45.7294 177.6 44.9342 176.96 44.0808 176.96ZM53.1103 173.1C51.7914 173.1 50.7052 172.111 50.7052 170.773C50.7052 169.434 51.7914 168.445 53.1103 168.445C54.4099 168.445 55.5155 169.434 55.5155 170.773C55.5155 172.111 54.4099 173.1 53.1103 173.1ZM55.3021 173.934V183.632H50.938V173.934H55.3021ZM63.8156 173.643C66.0462 173.643 67.5397 175.137 67.5397 177.387V183.632H63.1755V178.744C63.1755 177.561 62.6712 177.542 62.3027 177.542C62.2445 177.542 61.9535 177.542 61.1195 177.6V183.632H56.7553V174.128C61.2359 173.663 62.4578 173.643 63.8156 173.643ZM73.4722 173.643C74.7524 173.643 75.5088 173.663 79.9506 174.128V183.632H75.5864V183.05C74.9075 183.613 74.2093 183.923 73.0843 183.923C71.5714 183.923 68.6037 182.585 68.6037 178.725C68.7395 175.68 70.6597 173.643 73.4722 173.643ZM74.4032 176.96C73.5498 176.96 72.7545 177.6 72.7545 178.744C72.7545 179.753 73.5304 180.413 74.4226 180.413C74.7718 180.413 75.1403 180.219 75.5864 179.831V177.038C74.8881 176.979 74.636 176.96 74.4032 176.96ZM88.8638 173.779V177.93C87.9715 177.93 86.9047 177.988 85.8573 178.046V183.632H81.4932V174.4C84.519 173.857 86.7496 173.779 88.8638 173.779ZM91.8082 173.1C90.4893 173.1 89.4031 172.111 89.4031 170.773C89.4031 169.434 90.4893 168.445 91.8082 168.445C93.1078 168.445 94.2134 169.434 94.2134 170.773C94.2134 172.111 93.1078 173.1 91.8082 173.1ZM94 173.934V183.632H89.6358V173.934H94Z" fill="white" style="fill:white;fill-opacity:1;"/>
<mask id="path-5-outside-2_28_56" maskUnits="userSpaceOnUse" x="54.9243" y="159.632" width="24" height="13" fill="black">
<rect fill="white" x="54.9243" y="159.632" width="24" height="13"/>
<path d="M65.5204 161.377V170.632H63.4242L59.123 165.256V170.632H56.8363V161.377H58.9461L63.2337 166.794V161.377H65.5204ZM71.9259 161.172C74.8524 161.172 76.8941 163.105 76.8941 166.004C76.8941 168.904 74.8524 170.836 71.9259 170.836C68.9995 170.836 66.9578 168.904 66.9578 166.004C66.9578 163.105 68.9995 161.172 71.9259 161.172ZM71.9259 168.727C73.4368 168.727 74.5257 167.638 74.5257 166.004C74.5257 164.371 73.4368 163.296 71.9259 163.296C70.4151 163.296 69.3262 164.371 69.3262 166.004C69.3262 167.638 70.4151 168.727 71.9259 168.727Z"/>
</mask>
<path d="M65.5204 161.377V170.632H63.4242L59.123 165.256V170.632H56.8363V161.377H58.9461L63.2337 166.794V161.377H65.5204ZM71.9259 161.172C74.8524 161.172 76.8941 163.105 76.8941 166.004C76.8941 168.904 74.8524 170.836 71.9259 170.836C68.9995 170.836 66.9578 168.904 66.9578 166.004C66.9578 163.105 68.9995 161.172 71.9259 161.172ZM71.9259 168.727C73.4368 168.727 74.5257 167.638 74.5257 166.004C74.5257 164.371 73.4368 163.296 71.9259 163.296C70.4151 163.296 69.3262 164.371 69.3262 166.004C69.3262 167.638 70.4151 168.727 71.9259 168.727Z" fill="#F6BA25" style="fill:#F6BA25;fill:color(display-p3 0.9647 0.7294 0.1451);fill-opacity:1;"/>
<path d="M65.5204 161.377H66.8815V160.015H65.5204V161.377ZM65.5204 170.632V171.993H66.8815V170.632H65.5204ZM63.4242 170.632L62.3613 171.483L62.77 171.993H63.4242V170.632ZM59.123 165.256L60.1859 164.405L57.7619 161.375V165.256H59.123ZM59.123 170.632V171.993H60.4841V170.632H59.123ZM56.8363 170.632H55.4751V171.993H56.8363V170.632ZM56.8363 161.377V160.015H55.4751V161.377H56.8363ZM58.9461 161.377L60.0134 160.532L59.6046 160.015H58.9461V161.377ZM63.2337 166.794L62.1663 167.639L64.5948 170.707V166.794H63.2337ZM63.2337 161.377V160.015H61.8725V161.377H63.2337ZM65.5204 161.377H64.1592V170.632H65.5204H66.8815V161.377H65.5204ZM65.5204 170.632V169.271H63.4242V170.632V171.993H65.5204V170.632ZM63.4242 170.632L64.4871 169.782L60.1859 164.405L59.123 165.256L58.0601 166.106L62.3613 171.483L63.4242 170.632ZM59.123 165.256H57.7619V170.632H59.123H60.4841V165.256H59.123ZM59.123 170.632V169.271H56.8363V170.632V171.993H59.123V170.632ZM56.8363 170.632H58.1974V161.377H56.8363H55.4751V170.632H56.8363ZM56.8363 161.377V162.738H58.9461V161.377V160.015H56.8363V161.377ZM58.9461 161.377L57.8787 162.221L62.1663 167.639L63.2337 166.794L64.301 165.949L60.0134 160.532L58.9461 161.377ZM63.2337 166.794H64.5948V161.377H63.2337H61.8725V166.794H63.2337ZM63.2337 161.377V162.738H65.5204V161.377V160.015H63.2337V161.377ZM71.9259 161.172V162.533C73.0859 162.533 73.9731 162.912 74.5622 163.481C75.1466 164.045 75.533 164.886 75.533 166.004H76.8941H78.2553C78.2553 164.223 77.6208 162.649 76.4527 161.522C75.2893 160.399 73.6925 159.811 71.9259 159.811V161.172ZM76.8941 166.004H75.533C75.533 167.122 75.1466 167.964 74.5622 168.528C73.9731 169.097 73.0859 169.475 71.9259 169.475V170.836V172.198C73.6925 172.198 75.2893 171.61 76.4527 170.487C77.6208 169.36 78.2553 167.786 78.2553 166.004H76.8941ZM71.9259 170.836V169.475C70.766 169.475 69.8787 169.097 69.2896 168.528C68.7053 167.964 68.3189 167.122 68.3189 166.004H66.9578H65.5966C65.5966 167.786 66.2311 169.36 67.3992 170.487C68.5626 171.61 70.1594 172.198 71.9259 172.198V170.836ZM66.9578 166.004H68.3189C68.3189 164.886 68.7053 164.045 69.2896 163.481C69.8787 162.912 70.766 162.533 71.9259 162.533V161.172V159.811C70.1594 159.811 68.5626 160.399 67.3992 161.522C66.2311 162.649 65.5966 164.223 65.5966 166.004H66.9578ZM71.9259 168.727V170.088C73.019 170.088 74.0321 169.688 74.7705 168.925C75.5069 168.164 75.8869 167.129 75.8869 166.004H74.5257H73.1646C73.1646 166.513 73.0001 166.84 72.8143 167.031C72.6305 167.221 72.3437 167.366 71.9259 167.366V168.727ZM74.5257 166.004H75.8869C75.8869 164.879 75.5064 163.846 74.7671 163.087C74.0267 162.328 73.0139 161.935 71.9259 161.935V163.296V164.657C72.3489 164.657 72.636 164.801 72.8177 164.988C73.0006 165.175 73.1646 165.497 73.1646 166.004H74.5257ZM71.9259 163.296V161.935C70.838 161.935 69.8252 162.328 69.0848 163.087C68.3455 163.846 67.965 164.879 67.965 166.004H69.3262H70.6873C70.6873 165.497 70.8513 165.175 71.0341 164.988C71.2159 164.801 71.503 164.657 71.9259 164.657V163.296ZM69.3262 166.004H67.965C67.965 167.129 68.345 168.164 69.0814 168.925C69.8197 169.688 70.8329 170.088 71.9259 170.088V168.727V167.366C71.5082 167.366 71.2214 167.221 71.0375 167.031C70.8518 166.84 70.6873 166.513 70.6873 166.004H69.3262Z" fill="#212121" style="fill:#212121;fill:color(display-p3 0.1294 0.1294 0.1294);fill-opacity:1;" mask="url(#path-5-outside-2_28_56)"/>
</svg>
