<svg width="26" height="26" viewBox="0 0 26 26" fill="none" xmlns="http://www.w3.org/2000/svg">
<path d="M22.5857 0.585693C23.3667 -0.195355 24.6328 -0.195355 25.4138 0.585693C26.1946 1.36676 26.1948 2.63285 25.4138 3.41382L15.8279 12.9998L25.4138 22.5857C26.1946 23.3668 26.1948 24.6329 25.4138 25.4138C24.6329 26.1948 23.3668 26.1946 22.5857 25.4138L12.9998 15.8279L3.41382 25.4138C2.63285 26.1948 1.36676 26.1946 0.585693 25.4138C-0.195355 24.6328 -0.195355 23.3667 0.585693 22.5857L10.1716 12.9998L0.585693 3.41382C-0.195355 2.63277 -0.195355 1.36674 0.585693 0.585693C1.36674 -0.195355 2.63277 -0.195355 3.41382 0.585693L12.9998 10.1716L22.5857 0.585693Z" fill="white"/>
</svg>
