<svg width="167" height="229" viewBox="0 0 167 229" fill="none" xmlns="http://www.w3.org/2000/svg">
<path d="M70.4519 228.468C60.1413 228.468 54.4143 224.272 51.4334 220.75C49.6571 218.658 48.4933 216.442 47.7481 214.319C43.879 213.135 40.5204 211.011 37.9478 208.051C33.3642 202.773 31.6798 195.545 32.9456 186.552C33.3131 183.948 33.844 181.396 34.528 178.916C33.6909 178.313 32.8742 177.69 32.0575 177.058L31.6185 177.497L24.401 170.279C-8.13368 137.744 -8.13368 84.8027 24.401 52.2679C29.7606 46.9084 35.7938 42.335 42.3783 38.6395L40.2243 0L65.7662 16.6298L81.2628 0.683975L96.7594 16.6298L122.291 0L120.27 36.4242C128.488 40.4464 135.92 45.765 142.412 52.2577C158.174 68.0197 166.852 88.978 166.852 111.263C166.852 133.549 158.174 154.507 142.412 170.269C138.87 173.811 135.021 177.027 130.897 179.875C131.469 182.05 131.908 184.275 132.224 186.541C133.49 195.535 131.805 202.773 127.222 208.041C124.649 211.001 121.291 213.124 117.422 214.309C116.676 216.442 115.513 218.658 113.736 220.74C110.745 224.262 105.018 228.458 94.7177 228.458H70.4519V228.468Z" fill="white" style="fill:white;fill-opacity:1;"/>
<path d="M105.712 100.748C101.496 100.748 98.0765 104.168 98.0765 108.384C98.0765 112.601 101.496 116.02 105.712 116.02C109.929 116.02 113.349 112.601 113.349 108.384C113.349 104.168 109.929 100.748 105.712 100.748ZM63.0611 108.384C63.0611 104.168 59.6412 100.748 55.425 100.748C51.2089 100.748 47.789 104.168 47.789 108.384C47.789 112.601 51.2089 116.02 55.425 116.02C59.6412 116.02 63.0611 112.601 63.0611 108.384ZM135.215 58.8932C128.427 52.1045 120.607 46.9492 112.266 43.3864L111.899 50.0015L88.7969 47.7352H109.408L111.011 18.9573L95.31 29.176L81.2834 14.7411L67.2568 29.176L51.556 18.9573L52.9546 44.1214C45.2267 47.6434 37.9786 52.5435 31.6289 58.8932C3.02443 87.4976 3.02443 133.865 31.6289 162.469C36.2942 167.135 41.4393 171.024 46.9009 174.168C45.0736 178.109 43.7464 182.519 43.0625 187.378C40.3266 206.815 56.8032 204.508 56.8032 204.508C56.8032 204.508 54.639 217.667 70.4623 217.667H94.7281C110.562 217.667 108.387 204.508 108.387 204.508C108.387 204.508 124.864 206.805 122.128 187.378C121.485 182.815 120.27 178.66 118.606 174.903C124.558 171.637 130.152 167.502 135.195 162.469C163.799 133.865 163.799 87.4976 135.195 58.8932H135.215ZM116.728 143.992C98.3317 162.388 68.5124 162.388 50.1166 143.992C31.7207 125.596 31.7207 95.7768 50.1166 77.3809C60.805 66.6926 75.3522 62.2314 89.2767 63.9669C86.4795 64.8959 84.0601 66.9988 83.0086 70.6943C80.5892 79.2389 75.1072 81.546 68.7983 82.23C68.7983 82.23 90.4813 86.8851 100.312 75.962C103.354 72.5829 103.232 69.4693 101.496 67.1928C107.029 69.4897 112.215 72.879 116.717 77.3809C135.113 95.7768 135.113 125.596 116.717 143.992H116.728ZM97.76 124.79C89.9198 119.063 85.7649 119.685 82.4063 124.361C77.302 117.827 71.8813 120.839 66.2359 125.851C61.05 130.466 54.5165 124.361 54.5165 124.361C54.5165 124.361 59.0491 133.885 68.1143 134.243C77.1999 134.6 78.3229 128.046 82.0694 128.24C85.7445 128.434 89.6748 134.243 96.8923 134.243C105.488 134.243 110.664 125.371 110.664 125.371C110.664 125.371 106.121 130.915 97.7498 124.79H97.76Z" fill="#212121" style="fill:#212121;fill:color(display-p3 0.1294 0.1294 0.1294);fill-opacity:1;"/>
<path d="M67.4047 179.694H67.4241L69.5964 176.785H74.3873L71.3615 180.839L74.8916 186.483H69.965L68.2969 183.651H67.4047V186.483H63.0405V172.712H67.4047V179.694ZM77.6553 175.951C76.3364 175.951 75.2502 174.962 75.2502 173.623C75.2502 172.285 76.3364 171.296 77.6553 171.296C78.9549 171.296 80.0604 172.285 80.0604 173.623C80.0604 174.962 78.9549 175.951 77.6553 175.951ZM79.8471 176.785V186.483H75.4829V176.785H79.8471ZM88.3605 176.494C90.5911 176.494 92.0846 177.988 92.0846 180.238V186.483H87.7205V181.595C87.7205 180.412 87.2162 180.393 86.8476 180.393C86.7894 180.393 86.4985 180.393 85.6645 180.451V186.483H81.3003V176.979C85.7808 176.513 87.0028 176.494 88.3605 176.494ZM98.0172 176.494C99.2973 176.494 100.054 176.513 104.496 176.979V186.483C104.496 189.878 102.401 191.584 98.4633 191.584C97.2219 191.584 96.1357 191.429 94.778 191.002L95.2823 187.977C96.3879 188.19 97.2413 188.326 98.2693 188.326C99.6271 188.326 100.073 187.821 100.131 186.697C99.3943 186.755 98.8124 186.774 98.0366 186.774C96.1163 186.774 93.1487 185.436 93.1487 181.576C93.2845 178.531 95.2047 176.494 98.0172 176.494ZM98.9482 179.811C98.0948 179.811 97.2995 180.451 97.2995 181.595C97.2995 182.604 98.0754 183.263 98.9676 183.263C99.2003 183.263 99.5495 183.225 100.131 183.166V179.888C99.4331 179.83 99.1809 179.811 98.9482 179.811Z" fill="white" style="fill:white;fill-opacity:1;"/>
<mask id="path-4-outside-1_21_185" maskUnits="userSpaceOnUse" x="60.2437" y="188.88" width="46" height="12" fill="black">
<rect fill="white" x="60.2437" y="188.88" width="46" height="12"/>
<path d="M69.1553 194.409C69.1553 195.889 68.4407 197.032 67.2871 197.614L68.9001 199.564H66.838L65.5517 198.033H65.419C63.2241 198.033 61.6928 196.583 61.6928 194.409C61.6928 192.234 63.2241 190.785 65.419 190.785C67.6138 190.785 69.1553 192.234 69.1553 194.409ZM63.4691 194.409C63.4691 195.634 64.2858 196.45 65.419 196.45C66.5419 196.45 67.3586 195.634 67.3586 194.409C67.3586 193.184 66.5419 192.377 65.419 192.377C64.2858 192.377 63.4691 193.184 63.4691 194.409ZM76.6027 190.938V194.745C76.6027 196.808 75.347 198.033 73.3462 198.033C71.3555 198.033 70.11 196.808 70.11 194.745V190.938H71.8455V194.745C71.8455 195.807 72.4274 196.42 73.3462 196.42C74.2649 196.42 74.8672 195.807 74.8672 194.745V190.938H76.6027ZM81.3499 190.785C83.5448 190.785 85.076 192.234 85.076 194.409C85.076 196.583 83.5448 198.033 81.3499 198.033C79.1551 198.033 77.6238 196.583 77.6238 194.409C77.6238 192.234 79.1551 190.785 81.3499 190.785ZM81.3499 196.45C82.4831 196.45 83.2998 195.634 83.2998 194.409C83.2998 193.184 82.4831 192.377 81.3499 192.377C80.2168 192.377 79.4001 193.184 79.4001 194.409C79.4001 195.634 80.2168 196.45 81.3499 196.45ZM89.3185 192.479V197.88H87.5933V192.479H85.2657V190.938H91.6461V192.479H89.3185ZM94.059 193.674H97.1318V195.144H94.059V196.379H97.5912V197.88H92.344V190.938H97.5912V192.438H94.059V193.674ZM104.289 191.305L103.921 192.796C102.951 192.5 102.084 192.336 101.492 192.336C100.889 192.336 100.522 192.52 100.522 192.949C100.522 193.418 101.083 193.5 102.063 193.704C103.492 194.01 104.442 194.46 104.442 195.797C104.442 197.277 103.288 198.033 101.543 198.033C100.654 198.033 99.5316 197.839 98.4494 197.43L98.8374 195.909C99.9501 196.328 100.859 196.491 101.471 196.501C102.206 196.512 102.594 196.307 102.594 195.909C102.594 195.348 101.808 195.256 100.93 195.072C99.3784 194.745 98.6536 194.245 98.6536 193.03C98.6536 191.662 99.7459 190.836 101.481 190.836C102.441 190.836 103.564 191.05 104.289 191.305Z"/>
</mask>
<path d="M69.1553 194.409C69.1553 195.889 68.4407 197.032 67.2871 197.614L68.9001 199.564H66.838L65.5517 198.033H65.419C63.2241 198.033 61.6928 196.583 61.6928 194.409C61.6928 192.234 63.2241 190.785 65.419 190.785C67.6138 190.785 69.1553 192.234 69.1553 194.409ZM63.4691 194.409C63.4691 195.634 64.2858 196.45 65.419 196.45C66.5419 196.45 67.3586 195.634 67.3586 194.409C67.3586 193.184 66.5419 192.377 65.419 192.377C64.2858 192.377 63.4691 193.184 63.4691 194.409ZM76.6027 190.938V194.745C76.6027 196.808 75.347 198.033 73.3462 198.033C71.3555 198.033 70.11 196.808 70.11 194.745V190.938H71.8455V194.745C71.8455 195.807 72.4274 196.42 73.3462 196.42C74.2649 196.42 74.8672 195.807 74.8672 194.745V190.938H76.6027ZM81.3499 190.785C83.5448 190.785 85.076 192.234 85.076 194.409C85.076 196.583 83.5448 198.033 81.3499 198.033C79.1551 198.033 77.6238 196.583 77.6238 194.409C77.6238 192.234 79.1551 190.785 81.3499 190.785ZM81.3499 196.45C82.4831 196.45 83.2998 195.634 83.2998 194.409C83.2998 193.184 82.4831 192.377 81.3499 192.377C80.2168 192.377 79.4001 193.184 79.4001 194.409C79.4001 195.634 80.2168 196.45 81.3499 196.45ZM89.3185 192.479V197.88H87.5933V192.479H85.2657V190.938H91.6461V192.479H89.3185ZM94.059 193.674H97.1318V195.144H94.059V196.379H97.5912V197.88H92.344V190.938H97.5912V192.438H94.059V193.674ZM104.289 191.305L103.921 192.796C102.951 192.5 102.084 192.336 101.492 192.336C100.889 192.336 100.522 192.52 100.522 192.949C100.522 193.418 101.083 193.5 102.063 193.704C103.492 194.01 104.442 194.46 104.442 195.797C104.442 197.277 103.288 198.033 101.543 198.033C100.654 198.033 99.5316 197.839 98.4494 197.43L98.8374 195.909C99.9501 196.328 100.859 196.491 101.471 196.501C102.206 196.512 102.594 196.307 102.594 195.909C102.594 195.348 101.808 195.256 100.93 195.072C99.3784 194.745 98.6536 194.245 98.6536 193.03C98.6536 191.662 99.7459 190.836 101.481 190.836C102.441 190.836 103.564 191.05 104.289 191.305Z" fill="#F6BA25" style="fill:#F6BA25;fill:color(display-p3 0.9647 0.7294 0.1451);fill-opacity:1;"/>
<path d="M67.2871 197.614L66.8274 196.703L65.685 197.279L66.5005 198.265L67.2871 197.614ZM68.9001 199.564V200.585H71.0694L69.6867 198.913L68.9001 199.564ZM66.838 199.564L66.0563 200.221L66.3622 200.585H66.838V199.564ZM65.5517 198.033L66.3333 197.376L66.0274 197.012H65.5517V198.033ZM69.1553 194.409H68.1344C68.1344 195.529 67.6145 196.306 66.8274 196.703L67.2871 197.614L67.7469 198.526C69.2669 197.759 70.1762 196.248 70.1762 194.409H69.1553ZM67.2871 197.614L66.5005 198.265L68.1135 200.215L68.9001 199.564L69.6867 198.913L68.0737 196.963L67.2871 197.614ZM68.9001 199.564V198.543H66.838V199.564V200.585H68.9001V199.564ZM66.838 199.564L67.6196 198.907L66.3333 197.376L65.5517 198.033L64.77 198.689L66.0563 200.221L66.838 199.564ZM65.5517 198.033V197.012H65.419V198.033V199.054H65.5517V198.033ZM65.419 198.033V197.012C64.549 197.012 63.8836 196.728 63.4417 196.301C63.0035 195.878 62.7137 195.247 62.7137 194.409H61.6928H60.672C60.672 195.744 61.1478 196.925 62.0239 197.771C62.8964 198.613 64.0941 199.054 65.419 199.054V198.033ZM61.6928 194.409H62.7137C62.7137 193.57 63.0035 192.939 63.4417 192.516C63.8836 192.089 64.549 191.805 65.419 191.805V190.785V189.764C64.0941 189.764 62.8964 190.205 62.0239 191.047C61.1478 191.892 60.672 193.073 60.672 194.409H61.6928ZM65.419 190.785V191.805C66.2892 191.805 66.958 192.09 67.4027 192.517C67.8435 192.941 68.1344 193.572 68.1344 194.409H69.1553H70.1762C70.1762 193.071 69.6963 191.89 68.8177 191.045C67.943 190.204 66.7436 189.764 65.419 189.764V190.785ZM63.4691 194.409H62.4483C62.4483 195.252 62.7332 196.028 63.2856 196.599C63.8393 197.171 64.5991 197.471 65.419 197.471V196.45V195.429C65.1056 195.429 64.8905 195.321 64.7527 195.179C64.6134 195.035 64.49 194.79 64.49 194.409H63.4691ZM65.419 196.45V197.471C66.2362 197.471 66.9934 197.169 67.5447 196.597C68.0946 196.027 68.3794 195.252 68.3794 194.409H67.3586H66.3377C66.3377 194.79 66.2143 195.036 66.075 195.18C65.9373 195.323 65.7247 195.429 65.419 195.429V196.45ZM67.3586 194.409H68.3794C68.3794 193.565 68.0942 192.791 67.5422 192.222C66.9893 191.653 66.2323 191.356 65.419 191.356V192.377V193.398C65.7286 193.398 65.9414 193.505 66.0776 193.645C66.2146 193.786 66.3377 194.028 66.3377 194.409H67.3586ZM65.419 192.377V191.356C64.603 191.356 63.8434 191.651 63.2881 192.221C62.7336 192.79 62.4483 193.564 62.4483 194.409H63.4691H64.49C64.49 194.028 64.613 193.787 64.7501 193.646C64.8864 193.506 65.1018 193.398 65.419 193.398V192.377ZM76.6027 190.938H77.6236V189.917H76.6027V190.938ZM70.11 190.938V189.917H69.0892V190.938H70.11ZM71.8455 190.938H72.8664V189.917H71.8455V190.938ZM74.8672 190.938V189.917H73.8464V190.938H74.8672ZM76.6027 190.938H75.5818V194.745H76.6027H77.6236V190.938H76.6027ZM76.6027 194.745H75.5818C75.5818 195.568 75.3358 196.108 75.0029 196.441C74.6696 196.774 74.137 197.012 73.3462 197.012V198.033V199.054C74.5562 199.054 75.6518 198.679 76.4466 197.884C77.2418 197.089 77.6236 195.985 77.6236 194.745H76.6027ZM73.3462 198.033V197.012C72.562 197.012 72.0355 196.775 71.7059 196.443C71.3759 196.111 71.1309 195.57 71.1309 194.745H70.11H69.0892C69.0892 195.983 69.4669 197.086 70.2573 197.882C71.0481 198.678 72.1397 199.054 73.3462 199.054V198.033ZM70.11 194.745H71.1309V190.938H70.11H69.0892V194.745H70.11ZM70.11 190.938V191.959H71.8455V190.938V189.917H70.11V190.938ZM71.8455 190.938H70.8246V194.745H71.8455H72.8664V190.938H71.8455ZM71.8455 194.745H70.8246C70.8246 195.457 71.0211 196.146 71.4965 196.668C71.9823 197.201 72.6506 197.441 73.3462 197.441V196.42V195.399C73.1229 195.399 73.041 195.332 73.0061 195.293C72.9608 195.244 72.8664 195.096 72.8664 194.745H71.8455ZM73.3462 196.42V197.441C74.0403 197.441 74.7097 197.203 75.1993 196.675C75.6815 196.156 75.8881 195.466 75.8881 194.745H74.8672H73.8464C73.8464 195.087 73.7518 195.234 73.7032 195.286C73.6619 195.33 73.5708 195.399 73.3462 195.399V196.42ZM74.8672 194.745H75.8881V190.938H74.8672H73.8464V194.745H74.8672ZM74.8672 190.938V191.959H76.6027V190.938V189.917H74.8672V190.938ZM81.3499 190.785V191.805C82.2199 191.805 82.8853 192.089 83.3271 192.516C83.7654 192.939 84.0552 193.57 84.0552 194.409H85.076H86.0969C86.0969 193.073 85.621 191.892 84.745 191.047C83.8724 190.205 82.6748 189.764 81.3499 189.764V190.785ZM85.076 194.409H84.0552C84.0552 195.247 83.7654 195.878 83.3271 196.301C82.8853 196.728 82.2199 197.012 81.3499 197.012V198.033V199.054C82.6748 199.054 83.8724 198.613 84.745 197.771C85.621 196.925 86.0969 195.744 86.0969 194.409H85.076ZM81.3499 198.033V197.012C80.48 197.012 79.8145 196.728 79.3727 196.301C78.9344 195.878 78.6446 195.247 78.6446 194.409H77.6238H76.6029C76.6029 195.744 77.0788 196.925 77.9549 197.771C78.8274 198.613 80.025 199.054 81.3499 199.054V198.033ZM77.6238 194.409H78.6446C78.6446 193.57 78.9344 192.939 79.3727 192.516C79.8145 192.089 80.48 191.805 81.3499 191.805V190.785V189.764C80.025 189.764 78.8274 190.205 77.9549 191.047C77.0788 191.892 76.6029 193.073 76.6029 194.409H77.6238ZM81.3499 196.45V197.471C82.1697 197.471 82.9296 197.171 83.4833 196.599C84.0357 196.028 84.3206 195.252 84.3206 194.409H83.2998H82.2789C82.2789 194.79 82.1555 195.035 82.0162 195.179C81.8783 195.321 81.6633 195.429 81.3499 195.429V196.45ZM83.2998 194.409H84.3206C84.3206 193.564 84.0353 192.79 83.4808 192.221C82.9255 191.651 82.1659 191.356 81.3499 191.356V192.377V193.398C81.6671 193.398 81.8824 193.506 82.0188 193.646C82.1559 193.787 82.2789 194.028 82.2789 194.409H83.2998ZM81.3499 192.377V191.356C80.534 191.356 79.7744 191.651 79.2191 192.221C78.6646 192.79 78.3792 193.564 78.3792 194.409H79.4001H80.4209C80.4209 194.028 80.5439 193.787 80.6811 193.646C80.8174 193.506 81.0327 193.398 81.3499 193.398V192.377ZM79.4001 194.409H78.3792C78.3792 195.252 78.6642 196.028 79.2165 196.599C79.7703 197.171 80.5301 197.471 81.3499 197.471V196.45V195.429C81.0366 195.429 80.8215 195.321 80.6836 195.179C80.5443 195.035 80.4209 194.79 80.4209 194.409H79.4001ZM89.3185 192.479V191.458H88.2977V192.479H89.3185ZM89.3185 197.88V198.9H90.3394V197.88H89.3185ZM87.5933 197.88H86.5724V198.9H87.5933V197.88ZM87.5933 192.479H88.6141V191.458H87.5933V192.479ZM85.2657 192.479H84.2448V193.5H85.2657V192.479ZM85.2657 190.938V189.917H84.2448V190.938H85.2657ZM91.6461 190.938H92.6669V189.917H91.6461V190.938ZM91.6461 192.479V193.5H92.6669V192.479H91.6461ZM89.3185 192.479H88.2977V197.88H89.3185H90.3394V192.479H89.3185ZM89.3185 197.88V196.859H87.5933V197.88V198.9H89.3185V197.88ZM87.5933 197.88H88.6141V192.479H87.5933H86.5724V197.88H87.5933ZM87.5933 192.479V191.458H85.2657V192.479V193.5H87.5933V192.479ZM85.2657 192.479H86.2866V190.938H85.2657H84.2448V192.479H85.2657ZM85.2657 190.938V191.959H91.6461V190.938V189.917H85.2657V190.938ZM91.6461 190.938H90.6252V192.479H91.6461H92.6669V190.938H91.6461ZM91.6461 192.479V191.458H89.3185V192.479V193.5H91.6461V192.479ZM94.059 193.674H93.0382V194.694H94.059V193.674ZM97.1318 193.674H98.1527V192.653H97.1318V193.674ZM97.1318 195.144V196.164H98.1527V195.144H97.1318ZM94.059 195.144V194.123H93.0382V195.144H94.059ZM94.059 196.379H93.0382V197.4H94.059V196.379ZM97.5912 196.379H98.6121V195.358H97.5912V196.379ZM97.5912 197.88V198.9H98.6121V197.88H97.5912ZM92.344 197.88H91.3231V198.9H92.344V197.88ZM92.344 190.938V189.917H91.3231V190.938H92.344ZM97.5912 190.938H98.6121V189.917H97.5912V190.938ZM97.5912 192.438V193.459H98.6121V192.438H97.5912ZM94.059 192.438V191.417H93.0382V192.438H94.059ZM94.059 193.674V194.694H97.1318V193.674V192.653H94.059V193.674ZM97.1318 193.674H96.111V195.144H97.1318H98.1527V193.674H97.1318ZM97.1318 195.144V194.123H94.059V195.144V196.164H97.1318V195.144ZM94.059 195.144H93.0382V196.379H94.059H95.0799V195.144H94.059ZM94.059 196.379V197.4H97.5912V196.379V195.358H94.059V196.379ZM97.5912 196.379H96.5703V197.88H97.5912H98.6121V196.379H97.5912ZM97.5912 197.88V196.859H92.344V197.88V198.9H97.5912V197.88ZM92.344 197.88H93.3649V190.938H92.344H91.3231V197.88H92.344ZM92.344 190.938V191.959H97.5912V190.938V189.917H92.344V190.938ZM97.5912 190.938H96.5703V192.438H97.5912H98.6121V190.938H97.5912ZM97.5912 192.438V191.417H94.059V192.438V193.459H97.5912V192.438ZM94.059 192.438H93.0382V193.674H94.059H95.0799V192.438H94.059ZM104.289 191.305L105.28 191.55L105.502 190.65L104.628 190.342L104.289 191.305ZM103.921 192.796L103.623 193.772L104.654 194.087L104.912 193.04L103.921 192.796ZM102.063 193.704L102.277 192.706L102.271 192.705L102.063 193.704ZM98.4494 197.43L97.4603 197.178L97.2346 198.063L98.089 198.385L98.4494 197.43ZM98.8374 195.909L99.1968 194.954L98.1299 194.552L97.8482 195.657L98.8374 195.909ZM101.471 196.501L101.454 197.522L101.457 197.522L101.471 196.501ZM100.93 195.072L100.72 196.071L100.721 196.071L100.93 195.072ZM104.289 191.305L103.298 191.061L102.93 192.551L103.921 192.796L104.912 193.04L105.28 191.55L104.289 191.305ZM103.921 192.796L104.219 191.819C103.21 191.511 102.231 191.315 101.492 191.315V192.336V193.357C101.937 193.357 102.693 193.488 103.623 193.772L103.921 192.796ZM101.492 192.336V191.315C101.119 191.315 100.658 191.367 100.259 191.605C99.7796 191.89 99.5009 192.378 99.5009 192.949H100.522H101.543C101.543 192.991 101.532 193.077 101.477 193.175C101.422 193.273 101.35 193.331 101.303 193.359C101.262 193.383 101.248 193.38 101.287 193.373C101.324 193.365 101.39 193.357 101.492 193.357V192.336ZM100.522 192.949H99.5009C99.5009 193.295 99.614 193.634 99.8599 193.912C100.079 194.16 100.347 194.295 100.547 194.375C100.917 194.522 101.43 194.615 101.855 194.704L102.063 193.704L102.271 192.705C102.012 192.651 101.814 192.612 101.637 192.571C101.46 192.53 101.359 192.5 101.303 192.478C101.241 192.453 101.307 192.466 101.39 192.56C101.436 192.612 101.479 192.68 101.507 192.759C101.536 192.837 101.543 192.904 101.543 192.949H100.522ZM102.063 193.704L101.849 194.702C102.547 194.852 102.946 195.005 103.169 195.175C103.312 195.285 103.421 195.421 103.421 195.797H104.442H105.463C105.463 194.836 105.097 194.079 104.408 193.553C103.799 193.087 103.009 192.863 102.277 192.706L102.063 193.704ZM104.442 195.797H103.421C103.421 196.237 103.268 196.481 103.041 196.649C102.771 196.848 102.288 197.012 101.543 197.012V198.033V199.054C102.543 199.054 103.51 198.84 104.253 198.291C105.039 197.711 105.463 196.837 105.463 195.797H104.442ZM101.543 198.033V197.012C100.786 197.012 99.785 196.843 98.8099 196.475L98.4494 197.43L98.089 198.385C99.2781 198.834 100.523 199.054 101.543 199.054V198.033ZM98.4494 197.43L99.4386 197.683L99.8266 196.162L98.8374 195.909L97.8482 195.657L97.4603 197.178L98.4494 197.43ZM98.8374 195.909L98.478 196.865C99.6702 197.313 100.696 197.509 101.454 197.522L101.471 196.501L101.488 195.481C101.021 195.473 100.23 195.342 99.1968 194.954L98.8374 195.909ZM101.471 196.501L101.457 197.522C101.891 197.528 102.373 197.478 102.784 197.262C103.272 197.004 103.615 196.526 103.615 195.909H102.594H101.573C101.573 195.836 101.594 195.728 101.662 195.622C101.727 195.52 101.802 195.471 101.832 195.455C101.858 195.442 101.85 195.452 101.784 195.463C101.721 195.474 101.623 195.483 101.485 195.481L101.471 196.501ZM102.594 195.909H103.615C103.615 195.497 103.458 195.134 103.192 194.858C102.955 194.613 102.671 194.477 102.453 194.395C102.048 194.241 101.499 194.148 101.139 194.073L100.93 195.072L100.721 196.071C100.978 196.125 101.142 196.155 101.342 196.199C101.526 196.239 101.648 196.273 101.729 196.304C101.818 196.337 101.785 196.341 101.724 196.277C101.687 196.239 101.645 196.182 101.614 196.107C101.583 196.031 101.573 195.961 101.573 195.909H102.594ZM100.93 195.072L101.14 194.073C100.398 193.917 100.042 193.751 99.8698 193.605C99.7692 193.52 99.6745 193.403 99.6745 193.03H98.6536H97.6328C97.6328 193.873 97.9004 194.613 98.5502 195.163C99.1286 195.653 99.9101 195.901 100.72 196.071L100.93 195.072ZM98.6536 193.03H99.6745C99.6745 192.648 99.8121 192.404 100.04 192.229C100.298 192.029 100.762 191.856 101.481 191.856V190.836V189.815C100.466 189.815 99.5151 190.055 98.7935 190.612C98.0413 191.191 97.6328 192.045 97.6328 193.03H98.6536ZM101.481 190.836V191.856C102.321 191.856 103.33 192.05 103.95 192.268L104.289 191.305L104.628 190.342C103.798 190.05 102.561 189.815 101.481 189.815V190.836Z" fill="#212121" style="fill:#212121;fill:color(display-p3 0.1294 0.1294 0.1294);fill-opacity:1;" mask="url(#path-4-outside-1_21_185)"/>
</svg>
