<svg width="175" height="235" viewBox="0 0 175 235" fill="none" xmlns="http://www.w3.org/2000/svg">
<path d="M52.1611 48.188H122.124C125.281 40.3374 128.448 32.4976 131.604 24.647C132.532 23.0768 132.904 21.1251 132.369 19.0752C131.702 16.491 129.562 14.4411 126.941 13.885C122.343 12.9037 118.291 16.262 118.083 20.6235C114.053 19.6422 110.755 16.8072 109.16 12.871C108.931 12.304 108.134 12.3149 107.861 12.871C105.808 17.1452 102.007 19.9257 97.6492 19.7621C96.9065 19.7294 96.1966 19.6095 95.4976 19.4241C96.8847 17.625 97.7038 15.3788 97.6928 12.9364C97.6601 7.3428 93.0403 2.63241 87.4375 2.47976C81.4744 2.3162 76.5925 7.09202 76.5925 13.0127C76.5925 15.4333 77.4116 17.6468 78.7877 19.4241C78.0887 19.6095 77.3679 19.7294 76.6362 19.7621C72.1911 19.9366 68.3249 17.0362 66.3044 12.6093C66.086 12.1186 65.4089 12.1513 65.2123 12.642C63.6505 16.6873 60.2976 19.6204 56.2021 20.6126C55.9945 16.2511 51.9427 12.8928 47.3447 13.8741C44.7236 14.4302 42.5829 16.4801 41.9167 19.0643C41.3816 21.1142 41.7529 23.0659 42.6812 24.6361C45.8375 32.4867 48.9939 40.3265 52.1611 48.1771V48.188Z" fill="white" stroke="white" style="fill:white;fill-opacity:1;stroke:white;stroke-opacity:1;" stroke-width="4.95129" stroke-miterlimit="10"/>
<path d="M73.6765 234.434C62.8314 234.434 56.8027 230.018 53.6464 226.311C51.8116 224.152 50.5993 221.873 49.813 219.67C45.7939 218.416 42.299 216.192 39.6123 213.106C34.785 207.556 33.0048 199.956 34.3372 190.525C34.7085 187.875 35.2437 185.269 35.9427 182.75C32.2403 180.068 28.7563 177.102 25.5236 173.875C9.06485 157.443 0 135.592 0 112.345C0 89.0986 9.06485 67.2476 25.5236 50.8157C41.9495 34.4166 63.8362 25.3774 87.1645 25.3774C110.493 25.3774 132.369 34.4057 148.805 50.8157C182.793 84.748 182.793 139.953 148.805 173.886C145.158 177.528 141.182 180.842 136.945 183.786C137.513 186 137.96 188.246 138.288 190.547C139.62 199.978 137.84 207.578 133.013 213.128C130.326 216.214 126.842 218.438 122.812 219.692C122.026 221.895 120.803 224.173 118.979 226.332C115.823 230.04 109.794 234.456 98.9488 234.456H73.6874L73.6765 234.434Z" fill="white" style="fill:white;fill-opacity:1;"/>
<path d="M87.2625 20.9724L88.2236 22.3135C90.3861 25.312 93.881 27.1111 97.5615 27.1111C101.242 27.1111 104.748 25.3229 106.899 22.3135L107.86 20.9724L108.822 22.3135C111.465 25.9881 116.248 27.7763 120.595 26.8603L122.79 26.3915L114.064 47.7627H60.1772L51.4509 26.3915L53.6461 26.8603C57.9929 27.7763 62.7765 25.9881 65.4195 22.3135L66.3806 20.9724L67.3417 22.3135C69.5042 25.312 72.9991 27.1111 76.6796 27.1111C80.3601 27.1111 83.855 25.3229 86.0175 22.3135L86.9786 20.9724H87.2079H87.2625Z" fill="#212121" style="fill:#212121;fill:color(display-p3 0.1294 0.1294 0.1294);fill-opacity:1;"/>
<path d="M124.953 24.0582C126.66 24.0582 128.044 22.6767 128.044 20.9725C128.044 19.2683 126.66 17.8867 124.953 17.8867C123.246 17.8867 121.862 19.2683 121.862 20.9725C121.862 22.6767 123.246 24.0582 124.953 24.0582Z" fill="#212121" style="fill:#212121;fill:color(display-p3 0.1294 0.1294 0.1294);fill-opacity:1;"/>
<path d="M48.9502 24.0582C50.6572 24.0582 52.0409 22.6767 52.0409 20.9725C52.0409 19.2683 50.6572 17.8867 48.9502 17.8867C47.2432 17.8867 45.8594 19.2683 45.8594 20.9725C45.8594 22.6767 47.2432 24.0582 48.9502 24.0582Z" fill="#212121" style="fill:#212121;fill:color(display-p3 0.1294 0.1294 0.1294);fill-opacity:1;"/>
<path d="M141.051 58.5247C111.355 28.8666 62.9295 28.8666 33.2231 58.5247C3.45104 88.2481 3.45104 136.442 33.2231 166.177C38.0831 171.029 43.4347 175.074 49.1248 178.334C47.2244 182.434 45.8483 187.014 45.1275 192.062C42.277 212.256 59.4237 209.868 59.4237 209.868C59.4237 209.868 57.163 223.541 73.6435 223.541H98.905C115.386 223.541 113.125 209.868 113.125 209.868C113.125 209.868 130.272 212.256 127.432 192.062C126.766 187.319 125.488 183.001 123.773 179.098C129.966 175.707 135.798 171.411 141.04 166.177C170.812 136.453 170.812 88.259 141.04 58.5247H141.051ZM122.135 145.285C102.99 164.399 71.9398 164.399 52.7944 145.285C48.0326 140.531 44.4504 135.036 42.0585 129.17C42.0258 129.093 42.0039 129.028 41.9712 128.941C41.9603 128.908 41.9493 128.864 41.9275 128.832C40.18 124.23 35.0688 105.988 60.7452 98.8465C90.2333 90.636 87.4592 61.7194 87.4592 61.7194C88.5842 61.7194 89.72 61.774 90.8449 61.8503C91.1179 71.849 93.9029 92.1407 111.618 95.4773C119.612 96.982 127.312 96.5567 134.018 95.3355C134.018 95.3355 134.018 95.3573 134.018 95.3682C134.64 95.2483 135.284 95.1829 135.94 95.1829C141.75 95.1829 146.457 99.8824 146.457 105.683C146.457 111.484 141.87 116.053 136.158 116.172C134.957 126.814 130.293 137.129 122.124 145.285H122.135ZM137.873 122.104C137.873 120.261 139.369 118.757 141.226 118.757C143.082 118.757 144.579 120.25 144.579 122.104C144.579 123.958 143.082 125.452 141.226 125.452C139.369 125.452 137.873 123.958 137.873 122.104ZM111.629 106.566C108.33 106.566 105.469 107.886 104.115 109.805C103.405 110.797 104.584 111.953 106.168 111.8C107.861 111.637 109.706 111.538 111.629 111.538C113.551 111.538 115.396 111.626 117.089 111.8C118.673 111.953 119.852 110.797 119.143 109.805C117.777 107.886 114.927 106.566 111.629 106.566ZM62.2743 106.566C58.976 106.566 56.1145 107.886 54.7603 109.805C54.0504 110.797 55.2299 111.953 56.8135 111.8C58.5063 111.637 60.3521 111.538 62.2743 111.538C64.1964 111.538 66.0422 111.626 67.735 111.8C69.3186 111.953 70.4981 110.797 69.7882 109.805C68.4231 107.886 65.5725 106.566 62.2743 106.566ZM139.577 108.812C138.594 108.812 137.786 109.608 137.786 110.601C137.786 111.593 138.583 112.389 139.577 112.389C140.571 112.389 141.368 111.593 141.368 110.601C141.368 109.608 140.571 108.812 139.577 108.812ZM86.3125 132.844C77.9357 129.933 73.1739 134.905 73.1739 134.905C78.6347 140.357 86.3125 139.441 86.3125 139.441C86.3125 139.441 93.9903 140.357 99.451 134.905C99.451 134.905 94.6893 129.933 86.3125 132.844Z" fill="#212121" style="fill:#212121;fill:color(display-p3 0.1294 0.1294 0.1294);fill-opacity:1;"/>
<path d="M87.1426 17.6032C89.688 17.6032 91.7514 15.5431 91.7514 13.0018C91.7514 10.4605 89.688 8.40045 87.1426 8.40045C84.5972 8.40045 82.5337 10.4605 82.5337 13.0018C82.5337 15.5431 84.5972 17.6032 87.1426 17.6032Z" fill="#212121" style="fill:#212121;fill:color(display-p3 0.1294 0.1294 0.1294);fill-opacity:1;"/>
<path d="M69.3823 192.242C70.3627 192.242 70.942 192.198 74.3435 192.614V203.011H71.0014V200.055C70.437 200.1 69.9913 200.115 69.3972 200.115C67.9267 200.115 65.654 199.09 65.654 196.134C65.758 193.802 67.2285 192.242 69.3823 192.242ZM70.1102 197.426C70.2884 197.426 70.5558 197.396 71.0014 197.352V194.842C70.4667 194.797 70.2736 194.782 70.0953 194.782C69.4417 194.782 68.8327 195.272 68.8327 196.149C68.8327 196.921 69.4269 197.426 70.1102 197.426ZM83.7093 192.465V199.788C80.2781 200.055 79.3423 200.011 78.3025 200.011C76.6686 200.011 75.4506 198.986 75.4506 197.144V192.465H78.7927V196.476C78.7927 197.382 79.1938 197.396 79.4611 197.396C79.5057 197.396 79.7285 197.396 80.3672 197.352V192.465H83.7093ZM88.4011 192.242C90.7034 192.242 92.2334 193.683 92.2334 195.852C92.2334 196.208 92.174 196.609 92.07 197.04H87.6287C87.8515 197.486 88.2971 197.694 88.8467 197.694C89.7528 197.694 90.3915 197.634 91.5947 197.396L91.966 199.476C91.3273 199.743 90.1241 200.115 88.8467 200.115C86.277 200.115 84.5242 198.525 84.5242 196.149C84.5242 193.802 86.069 192.242 88.4011 192.242ZM88.5496 194.663C87.9852 194.663 87.6435 194.96 87.5247 195.555H89.4706C89.4557 194.99 89.1438 194.663 88.5496 194.663ZM96.6258 192.242C98.9282 192.242 100.458 193.683 100.458 195.852C100.458 196.208 100.399 196.609 100.295 197.04H95.8534C96.0762 197.486 96.5219 197.694 97.0714 197.694C97.9775 197.694 98.6162 197.634 99.8194 197.396L100.191 199.476C99.552 199.743 98.3489 200.115 97.0714 200.115C94.5017 200.115 92.749 198.525 92.749 196.149C92.749 193.802 94.2938 192.242 96.6258 192.242ZM96.7744 194.663C96.2099 194.663 95.8683 194.96 95.7494 195.555H97.6953C97.6805 194.99 97.3685 194.663 96.7744 194.663ZM106.679 192.242C108.388 192.242 109.531 193.386 109.531 195.109V199.892H106.189V196.149C106.189 195.243 105.803 195.228 105.521 195.228C105.476 195.228 105.253 195.228 104.615 195.272V199.892H101.273V192.614C104.704 192.257 105.64 192.242 106.679 192.242Z" fill="white" style="fill:white;fill-opacity:1;"/>
<path d="M78.2877 183.958C78.2877 186.65 76.9331 188.717 74.7941 189.68L77.6461 192.96H74.9545L72.566 190.25C72.3165 190.268 72.0669 190.286 71.8174 190.286C68.0386 190.286 65.3649 187.755 65.3649 183.958C65.3649 180.161 68.0386 177.63 71.8174 177.63C75.5962 177.63 78.2877 180.161 78.2877 183.958ZM67.6108 183.958C67.6108 186.543 69.3754 188.272 71.8352 188.272C74.2772 188.272 76.0418 186.543 76.0418 183.958C76.0418 181.374 74.2772 179.645 71.8352 179.645C69.3754 179.645 67.6108 181.374 67.6108 183.958ZM91.3202 177.898V184.849C91.3202 188.2 89.1456 190.286 85.8837 190.286C82.6218 190.286 80.4472 188.2 80.4472 184.849V177.898H82.5861V184.849C82.5861 187.006 83.8873 188.29 85.8837 188.29C87.8622 188.29 89.1812 187.006 89.1812 184.849V177.898H91.3202ZM96.1503 177.898V190.019H94.0113V177.898H96.1503ZM108.504 179.217L101.748 188.04H108.593V190.019H98.6112V188.7L105.509 179.876H98.8785V177.898H108.504V179.217Z" fill="#F6BA25" style="fill:#F6BA25;fill:color(display-p3 0.9647 0.7294 0.1451);fill-opacity:1;"/>
</svg>
